<svg width="371" height="265" viewBox="0 0 371 265" fill="none" xmlns="http://www.w3.org/2000/svg">
<path opacity="0.1" d="M333.15 225.065C330.384 226.494 327.486 227.729 324.631 228.94C314.068 233.406 303.342 237.92 291.998 239.454C270.682 242.316 248.691 234.528 227.751 239.388C210.211 243.446 195.706 255.88 178.57 261.417C170.602 263.991 162.312 265 153.948 265H152.868C151.838 265 150.813 264.961 149.783 264.922C141.303 264.603 132.787 263.364 124.474 261.741C98.2238 256.678 71.5079 247.398 51.439 230.314C109.874 219.609 230.245 203.184 333.15 225.065Z" fill="#252223"/>
<path opacity="0.3" d="M353.518 96.9655V72.0426H338.756V96.9655H321.274V58.4129H308.454V29.5959H297.965V0H276.21V29.5959H265.721V58.4129H253.29V23.7546H246.297V6.23071H242.024V23.7546H217.161V134.35H198.126V122.667H186.471V134.35H167.436V96.9655H133.249V72.0426H118.487V96.9655H117.71V144.864H102.171V116.826H83.5236V144.864H67.9843V58.4129H55.9414V29.5959H11.6545V58.4129H0V210.676H67.9843H117.71H167.436H217.161H253.29H321.274H371V96.9655H353.518Z" fill="#1BBCB6"/>
<path opacity="0.4" d="M23.6973 67.3696H7.3811V76.7157H23.6973V67.3696Z" fill="#F0F0F0"/>
<path opacity="0.4" d="M43.8984 76.7157H60.2146V67.3696H43.8984V76.7157Z" fill="#F0F0F0"/>
<path opacity="0.4" d="M23.6973 85.6723H7.3811V95.0184H23.6973V85.6723Z" fill="#F0F0F0"/>
<path opacity="0.4" d="M43.8984 95.0184H60.2146V85.6723H43.8984V95.0184Z" fill="#F0F0F0"/>
<path opacity="0.4" d="M23.6973 103.975H7.3811V113.321H23.6973V103.975Z" fill="#F0F0F0"/>
<path opacity="0.4" d="M43.8984 113.321H60.2146V103.975H43.8984V113.321Z" fill="#F0F0F0"/>
<path opacity="0.4" d="M23.6973 122.278H7.3811V131.624H23.6973V122.278Z" fill="#F0F0F0"/>
<path opacity="0.4" d="M43.8984 131.624H60.2146V122.278H43.8984V131.624Z" fill="#F0F0F0"/>
<path opacity="0.4" d="M23.6973 140.58H7.3811V149.926H23.6973V140.58Z" fill="#F0F0F0"/>
<path opacity="0.4" d="M43.8984 149.926H60.2146V140.58H43.8984V149.926Z" fill="#F0F0F0"/>
<path opacity="0.4" d="M23.6973 158.883H7.3811V168.229H23.6973V158.883Z" fill="#F0F0F0"/>
<path opacity="0.4" d="M43.8984 168.229H60.2146V158.883H43.8984V168.229Z" fill="#F0F0F0"/>
<path opacity="0.4" d="M23.6973 177.186H7.3811V186.532H23.6973V177.186Z" fill="#F0F0F0"/>
<path opacity="0.4" d="M43.8984 186.532H60.2146V177.186H43.8984V186.532Z" fill="#F0F0F0"/>
<path opacity="0.4" d="M111.883 154.21H73.8115V158.883H111.883V154.21Z" fill="#F0F0F0"/>
<path opacity="0.4" d="M111.883 161.22H73.8115V165.893H111.883V161.22Z" fill="#F0F0F0"/>
<path opacity="0.4" d="M111.883 168.229H73.8115V172.902H111.883V168.229Z" fill="#F0F0F0"/>
<path opacity="0.4" d="M211.334 156.547H173.263V161.22H211.334V156.547Z" fill="#F0F0F0"/>
<path opacity="0.4" d="M211.334 163.556H173.263V168.229H211.334V163.556Z" fill="#F0F0F0"/>
<path opacity="0.4" d="M211.334 170.566H173.263V175.239H211.334V170.566Z" fill="#F0F0F0"/>
<path opacity="0.4" d="M111.883 175.239H73.8115V179.912H111.883V175.239Z" fill="#F0F0F0"/>
<path opacity="0.4" d="M111.883 182.248H73.8115V186.921H111.883V182.248Z" fill="#F0F0F0"/>
<path opacity="0.4" d="M111.883 189.258H73.8115V193.931H111.883V189.258Z" fill="#F0F0F0"/>
<path opacity="0.4" d="M136.357 105.922H125.868V119.552H136.357V105.922Z" fill="#F0F0F0"/>
<path opacity="0.4" d="M148.789 119.552H159.278V105.922H148.789V119.552Z" fill="#F0F0F0"/>
<path opacity="0.4" d="M136.357 127.73H125.868V141.359H136.357V127.73Z" fill="#F0F0F0"/>
<path opacity="0.4" d="M148.789 141.359H159.278V127.73H148.789V141.359Z" fill="#F0F0F0"/>
<path opacity="0.4" d="M136.357 149.537H125.868V163.167H136.357V149.537Z" fill="#F0F0F0"/>
<path opacity="0.4" d="M148.789 163.167H159.278V149.537H148.789V163.167Z" fill="#F0F0F0"/>
<path opacity="0.4" d="M136.357 171.345H125.868V184.974H136.357V171.345Z" fill="#F0F0F0"/>
<path opacity="0.4" d="M148.789 184.974H159.278V171.345H148.789V184.974Z" fill="#F0F0F0"/>
<path opacity="0.4" d="M231.146 32.7112H217.161V50.6245H231.146V32.7112Z" fill="#F0F0F0"/>
<path opacity="0.4" d="M231.146 58.4129H217.161V76.3262H231.146V58.4129Z" fill="#F0F0F0"/>
<path opacity="0.4" d="M231.146 84.1146H217.161V102.028H231.146V84.1146Z" fill="#F0F0F0"/>
<path opacity="0.4" d="M231.146 109.816H217.161V127.73H231.146V109.816Z" fill="#F0F0F0"/>
<path opacity="0.4" d="M231.146 135.518H217.161V153.431H231.146V135.518Z" fill="#F0F0F0"/>
<path opacity="0.4" d="M231.146 161.22H217.161V179.133H231.146V161.22Z" fill="#F0F0F0"/>
<path opacity="0.4" d="M313.31 69.3167H261.254V84.504H313.31V69.3167Z" fill="#F0F0F0"/>
<path opacity="0.4" d="M313.505 102.028H261.448V117.215H313.505V102.028Z" fill="#F0F0F0"/>
<path opacity="0.4" d="M313.699 134.739H261.642V149.926H313.699V134.739Z" fill="#F0F0F0"/>
<path opacity="0.4" d="M313.893 167.45H261.837V182.638H313.893V167.45Z" fill="#F0F0F0"/>
<path opacity="0.4" d="M18.6472 37.7737H11.6545V52.5716H18.6472V37.7737Z" fill="#F0F0F0"/>
<path opacity="0.4" d="M371 105.922H353.518V128.508H371V105.922Z" fill="#F0F0F0"/>
<path opacity="0.4" d="M371 138.633H353.518V161.22H371V138.633Z" fill="#F0F0F0"/>
<path opacity="0.4" d="M371 171.345H353.518V193.931H371V171.345Z" fill="#F0F0F0"/>
<path d="M19.2958 186.746C19.2958 186.746 -11.2894 205.244 45.091 233.722C45.091 233.722 57.5224 210.606 43.7779 191.758C41.1121 188.083 37.1941 185.516 32.7663 184.544C28.3386 183.571 23.7087 184.261 19.7542 186.481L19.2958 186.746Z" fill="#1BBCB6"/>
<path d="M19.6494 186.357C19.6494 186.357 45.8214 206.431 45.0911 233.722" stroke="#535461" stroke-miterlimit="10"/>
<path d="M46.5129 234.773C46.5129 234.773 36.9291 202.155 48.3116 178.148C53.086 168.073 54.671 156.761 52.4645 145.826C51.4106 140.634 49.8826 135.55 47.8998 130.639" stroke="#535461" stroke-width="2" stroke-miterlimit="10"/>
<path d="M54.9701 115.486C54.9701 119.482 47.7521 131.063 47.7521 131.063C47.7521 131.063 40.5303 119.47 40.5303 115.486C40.5079 114.522 40.6782 113.562 41.031 112.665C41.3838 111.767 41.912 110.949 42.5847 110.259C43.2573 109.569 44.0608 109.021 44.9479 108.646C45.8349 108.272 46.7877 108.079 47.7502 108.079C48.7127 108.079 49.6655 108.272 50.5525 108.646C51.4396 109.021 52.2431 109.569 52.9157 110.259C53.5884 110.949 54.1166 111.767 54.4694 112.665C54.8222 113.562 54.9925 114.522 54.9701 115.486Z" fill="#1BBCB6"/>
<path d="M66.9199 137.629C64.7522 140.985 52.4062 146.78 52.4062 146.78C52.4062 146.78 52.6277 133.115 54.7954 129.762C55.8483 128.179 57.481 127.074 59.3401 126.688C61.1992 126.302 63.1352 126.665 64.7291 127.7C66.323 128.734 67.4465 130.355 67.8565 132.214C68.2665 134.072 67.9301 136.017 66.9199 137.629Z" fill="#1BBCB6"/>
<path d="M66.3954 175.469C62.837 177.268 49.2595 176.022 49.2595 176.022C49.2595 176.022 56.3338 164.339 59.8961 162.54C61.6032 161.704 63.5698 161.577 65.37 162.185C67.1702 162.793 68.659 164.087 69.5138 165.787C70.3687 167.488 70.5207 169.458 69.937 171.27C69.3533 173.082 68.0809 174.59 66.3954 175.469Z" fill="#1BBCB6"/>
<path d="M59.5697 204.009C56.3647 206.385 42.7756 207.459 42.7756 207.459C42.7756 207.459 47.7754 194.745 50.9843 192.369C52.5264 191.273 54.4361 190.826 56.3033 191.125C58.1704 191.424 59.8461 192.446 60.9702 193.97C62.0944 195.494 62.5774 197.399 62.3155 199.276C62.0537 201.153 61.0678 202.853 59.5697 204.009Z" fill="#1BBCB6"/>
<path d="M37.2437 147.555C40.1029 150.339 53.4317 153.225 53.4317 153.225C53.4317 153.225 50.1685 139.957 47.3054 137.173C46.6253 136.511 45.8218 135.989 44.9407 135.638C44.0596 135.287 43.1181 135.114 42.1701 135.128C41.2221 135.141 40.2861 135.342 39.4155 135.718C38.5448 136.095 37.7567 136.639 37.0961 137.321C36.4354 138.003 35.9151 138.808 35.565 139.691C35.2149 140.575 35.0417 141.518 35.0554 142.469C35.0692 143.419 35.2695 144.357 35.6449 145.23C36.0204 146.103 36.5636 146.893 37.2437 147.555Z" fill="#1BBCB6"/>
<path d="M29.684 181.033C33.2425 182.836 46.8199 181.59 46.8199 181.59C46.8199 181.59 39.7456 169.908 36.1871 168.109C35.3383 167.658 34.4084 167.382 33.4517 167.296C32.4951 167.21 31.5309 167.316 30.6157 167.608C29.7005 167.9 28.8526 168.372 28.1217 168.997C27.3908 169.622 26.7915 170.386 26.3589 171.246C25.9264 172.106 25.6693 173.043 25.6026 174.004C25.536 174.964 25.6611 175.928 25.9707 176.84C26.2804 177.751 26.7683 178.591 27.4058 179.312C28.0434 180.032 28.8179 180.617 29.684 181.033Z" fill="#1BBCB6"/>
<path d="M26.7898 214.586C29.9948 216.961 43.5877 218.036 43.5877 218.036C43.5877 218.036 38.5841 205.321 35.3752 202.946C33.8331 201.849 31.9234 201.402 30.0562 201.702C28.1891 202.001 26.5134 203.022 25.3893 204.546C24.2651 206.07 23.7821 207.976 24.044 209.853C24.3058 211.73 25.2917 213.429 26.7898 214.586Z" fill="#1BBCB6"/>
<path opacity="0.25" d="M54.9701 115.486C54.9701 119.482 47.7521 131.063 47.7521 131.063C47.7521 131.063 40.5303 119.47 40.5303 115.486C40.5079 114.522 40.6782 113.562 41.031 112.665C41.3838 111.767 41.912 110.949 42.5847 110.259C43.2573 109.569 44.0608 109.021 44.9479 108.646C45.8349 108.272 46.7877 108.079 47.7502 108.079C48.7127 108.079 49.6655 108.272 50.5525 108.646C51.4396 109.021 52.2431 109.569 52.9157 110.259C53.5884 110.949 54.1166 111.767 54.4694 112.665C54.8222 113.562 54.9925 114.522 54.9701 115.486Z" fill="black"/>
<path opacity="0.25" d="M66.9199 137.629C64.7522 140.985 52.4062 146.78 52.4062 146.78C52.4062 146.78 52.6277 133.115 54.7954 129.762C55.8483 128.179 57.481 127.074 59.3401 126.688C61.1992 126.302 63.1352 126.665 64.7291 127.7C66.323 128.734 67.4465 130.355 67.8565 132.214C68.2665 134.072 67.9301 136.017 66.9199 137.629Z" fill="black"/>
<path opacity="0.25" d="M66.3954 175.469C62.837 177.268 49.2595 176.022 49.2595 176.022C49.2595 176.022 56.3338 164.339 59.8961 162.54C61.6032 161.704 63.5698 161.577 65.37 162.185C67.1702 162.793 68.659 164.087 69.5138 165.787C70.3687 167.488 70.5207 169.458 69.937 171.27C69.3533 173.082 68.0809 174.59 66.3954 175.469Z" fill="black"/>
<path opacity="0.25" d="M59.5697 204.009C56.3647 206.385 42.7756 207.459 42.7756 207.459C42.7756 207.459 47.7754 194.745 50.9843 192.369C52.5264 191.273 54.4361 190.826 56.3033 191.125C58.1704 191.424 59.8461 192.446 60.9702 193.97C62.0944 195.494 62.5774 197.399 62.3155 199.276C62.0537 201.153 61.0678 202.853 59.5697 204.009Z" fill="black"/>
<path opacity="0.25" d="M37.2437 147.555C40.1029 150.339 53.4317 153.225 53.4317 153.225C53.4317 153.225 50.1685 139.957 47.3054 137.173C46.6253 136.511 45.8218 135.989 44.9407 135.638C44.0596 135.287 43.1181 135.114 42.1701 135.128C41.2221 135.141 40.2861 135.342 39.4155 135.718C38.5448 136.095 37.7567 136.639 37.0961 137.321C36.4354 138.003 35.9151 138.808 35.565 139.691C35.2149 140.575 35.0417 141.518 35.0554 142.469C35.0692 143.419 35.2695 144.357 35.6449 145.23C36.0204 146.103 36.5636 146.893 37.2437 147.555Z" fill="black"/>
<path opacity="0.25" d="M29.684 181.033C33.2425 182.836 46.8199 181.59 46.8199 181.59C46.8199 181.59 39.7456 169.908 36.1871 168.109C35.3383 167.658 34.4084 167.382 33.4517 167.296C32.4951 167.21 31.5309 167.316 30.6157 167.608C29.7005 167.9 28.8526 168.372 28.1217 168.997C27.3908 169.622 26.7915 170.386 26.3589 171.246C25.9264 172.106 25.6693 173.043 25.6026 174.004C25.536 174.964 25.6611 175.928 25.9707 176.84C26.2804 177.751 26.7683 178.591 27.4058 179.312C28.0434 180.032 28.8179 180.617 29.684 181.033Z" fill="black"/>
<path opacity="0.25" d="M26.7898 214.586C29.9948 216.961 43.5877 218.036 43.5877 218.036C43.5877 218.036 38.5841 205.321 35.3752 202.946C33.8331 201.849 31.9234 201.402 30.0562 201.702C28.1891 202.001 26.5134 203.022 25.3893 204.546C24.2651 206.07 23.7821 207.976 24.044 209.853C24.3058 211.73 25.2917 213.429 26.7898 214.586Z" fill="black"/>
<path d="M345.663 226.35C345.663 226.35 336.079 193.732 347.462 169.725C352.236 159.65 353.825 148.338 351.619 137.403C350.561 132.212 349.033 127.128 347.054 122.215" stroke="#535461" stroke-width="2" stroke-miterlimit="10"/>
<path d="M354.136 107.063C354.136 111.059 346.914 122.64 346.914 122.64C346.914 122.64 339.692 111.047 339.692 107.063C339.692 105.143 340.453 103.302 341.808 101.944C343.162 100.587 344.999 99.8238 346.914 99.8238C348.83 99.8238 350.667 100.587 352.021 101.944C353.375 103.302 354.136 105.143 354.136 107.063Z" fill="#1BBCB6"/>
<path d="M366.07 129.205C363.902 132.562 351.556 138.357 351.556 138.357C351.556 138.357 351.782 124.692 353.949 121.339C354.99 119.728 356.627 118.597 358.499 118.196C360.371 117.794 362.326 118.154 363.933 119.197C365.541 120.241 366.669 121.881 367.07 123.758C367.47 125.635 367.111 127.594 366.07 129.205Z" fill="#1BBCB6"/>
<path d="M365.549 167.045C361.987 168.845 348.41 167.598 348.41 167.598C348.41 167.598 355.488 155.916 359.046 154.117C360.757 153.252 362.739 153.104 364.559 153.705C366.378 154.306 367.884 155.607 368.747 157.322C369.609 159.036 369.757 161.024 369.157 162.847C368.558 164.671 367.26 166.181 365.549 167.045Z" fill="#1BBCB6"/>
<path d="M358.724 195.586C355.515 197.961 341.926 199.036 341.926 199.036C341.926 199.036 346.93 186.322 350.135 183.946C351.675 182.823 353.597 182.355 355.48 182.645C357.363 182.935 359.056 183.96 360.189 185.495C361.322 187.031 361.804 188.953 361.53 190.843C361.255 192.733 360.247 194.438 358.724 195.586Z" fill="#1BBCB6"/>
<path d="M336.394 139.12C339.257 141.904 352.582 144.79 352.582 144.79C352.582 144.79 349.319 131.523 346.46 128.738C345.783 128.06 344.978 127.524 344.093 127.16C343.208 126.796 342.259 126.613 341.302 126.62C340.345 126.627 339.399 126.824 338.519 127.201C337.639 127.577 336.843 128.126 336.176 128.813C335.509 129.501 334.985 130.315 334.635 131.208C334.284 132.1 334.114 133.054 334.134 134.013C334.155 134.971 334.365 135.917 334.753 136.794C335.141 137.67 335.699 138.461 336.394 139.12Z" fill="#1BBCB6"/>
<path d="M328.85 172.61C332.412 174.413 345.99 173.167 345.99 173.167C345.99 173.167 338.915 161.484 335.353 159.685C334.504 159.235 333.574 158.958 332.617 158.872C331.661 158.786 330.697 158.893 329.781 159.185C328.866 159.477 328.018 159.949 327.287 160.574C326.557 161.199 325.957 161.963 325.525 162.823C325.092 163.682 324.835 164.62 324.768 165.58C324.702 166.541 324.827 167.505 325.137 168.417C325.446 169.328 325.934 170.168 326.572 170.888C327.209 171.608 327.984 172.194 328.85 172.61Z" fill="#1BBCB6"/>
<path d="M325.94 206.163C329.149 208.538 342.738 209.613 342.738 209.613C342.738 209.613 337.734 196.902 334.529 194.523C332.988 193.399 331.067 192.932 329.184 193.222C327.301 193.512 325.608 194.536 324.475 196.072C323.342 197.607 322.86 199.53 323.134 201.42C323.409 203.31 324.417 205.015 325.94 206.163Z" fill="#1BBCB6"/>
<path d="M302.433 223.176C302.433 223.176 297.282 205.652 303.4 192.747C305.998 187.352 306.782 181.258 305.634 175.379C305.066 172.591 304.244 169.862 303.179 167.225" stroke="#535461" stroke-width="2" stroke-miterlimit="10"/>
<path d="M306.986 159.07C306.986 161.22 303.101 167.45 303.101 167.45C303.101 167.45 299.216 161.22 299.216 159.07C299.216 158.037 299.626 157.047 300.354 156.317C301.083 155.586 302.071 155.176 303.101 155.176C304.131 155.176 305.12 155.586 305.848 156.317C306.577 157.047 306.986 158.037 306.986 159.07Z" fill="#1BBCB6"/>
<path d="M313.4 170.971C312.234 172.774 305.599 175.889 305.599 175.889C305.599 175.889 305.72 168.545 306.885 166.742C307.466 165.926 308.338 165.367 309.32 165.179C310.302 164.992 311.319 165.191 312.158 165.736C312.997 166.281 313.594 167.129 313.826 168.104C314.057 169.079 313.904 170.106 313.4 170.971Z" fill="#1BBCB6"/>
<path d="M313.12 191.302C311.205 192.268 303.909 191.598 303.909 191.598C303.909 191.598 307.712 185.321 309.624 184.355C310.536 183.942 311.573 183.898 312.517 184.232C313.462 184.567 314.241 185.254 314.692 186.15C315.143 187.046 315.231 188.083 314.938 189.043C314.645 190.003 313.994 190.812 313.12 191.302Z" fill="#1BBCB6"/>
<path d="M309.449 206.642C307.728 207.919 300.425 208.495 300.425 208.495C300.425 208.495 303.113 201.665 304.838 200.388C305.245 200.05 305.716 199.8 306.222 199.651C306.729 199.503 307.261 199.459 307.785 199.523C308.309 199.588 308.814 199.758 309.27 200.025C309.726 200.292 310.123 200.649 310.437 201.074C310.751 201.5 310.975 201.985 311.095 202.5C311.216 203.016 311.23 203.55 311.138 204.071C311.045 204.592 310.848 205.089 310.557 205.531C310.267 205.973 309.89 206.351 309.449 206.642Z" fill="#1BBCB6"/>
<path d="M297.453 176.306C299.007 177.801 306.151 179.351 306.151 179.351C306.151 179.351 304.399 172.221 302.86 170.725C302.501 170.341 302.068 170.034 301.586 169.822C301.105 169.61 300.586 169.499 300.06 169.494C299.535 169.489 299.014 169.591 298.529 169.794C298.044 169.997 297.605 170.297 297.239 170.675C296.873 171.053 296.587 171.501 296.399 171.993C296.21 172.485 296.123 173.01 296.143 173.536C296.163 174.063 296.29 174.579 296.515 175.056C296.74 175.532 297.059 175.957 297.453 176.306Z" fill="#1BBCB6"/>
<path d="M293.389 194.297C295.304 195.263 302.6 194.597 302.6 194.597C302.6 194.597 298.797 188.319 296.882 187.35C295.969 186.936 294.932 186.892 293.988 187.227C293.044 187.561 292.265 188.248 291.814 189.145C291.363 190.041 291.274 191.077 291.567 192.037C291.86 192.997 292.511 193.807 293.385 194.297H293.389Z" fill="#1BBCB6"/>
<path d="M291.835 212.331C293.556 213.608 300.859 214.185 300.859 214.185C300.859 214.185 298.16 207.35 296.45 206.073C295.62 205.507 294.604 205.285 293.614 205.454C292.625 205.623 291.739 206.169 291.142 206.978C290.545 207.787 290.284 208.797 290.413 209.795C290.542 210.792 291.052 211.701 291.835 212.331Z" fill="#1BBCB6"/>
<path opacity="0.1" d="M102.823 18.5675H100.151C100.403 18.5791 100.656 18.5391 100.893 18.4501C101.13 18.3611 101.346 18.2248 101.529 18.0496C101.712 17.8743 101.858 17.6637 101.957 17.4305C102.057 17.1972 102.108 16.9462 102.108 16.6925C102.108 16.4388 102.057 16.1877 101.957 15.9545C101.858 15.7212 101.712 15.5106 101.529 15.3353C101.346 15.1601 101.13 15.0238 100.893 14.9348C100.656 14.8458 100.403 14.8059 100.151 14.8174H78.5004C78.2476 14.8059 77.9951 14.8458 77.7581 14.9348C77.5211 15.0238 77.3046 15.1601 77.1216 15.3353C76.9386 15.5106 76.793 15.7212 76.6935 15.9545C76.594 16.1877 76.5427 16.4388 76.5427 16.6925C76.5427 16.9462 76.594 17.1972 76.6935 17.4305C76.793 17.6637 76.9386 17.8743 77.1216 18.0496C77.3046 18.2248 77.5211 18.3611 77.7581 18.4501C77.9951 18.5391 78.2476 18.5791 78.5004 18.5675H81.1732C80.6766 18.5675 80.2003 18.7653 79.8491 19.1173C79.498 19.4693 79.3007 19.9467 79.3007 20.4445C79.3007 20.9423 79.498 21.4197 79.8491 21.7718C80.2003 22.1238 80.6766 22.3215 81.1732 22.3215H77.4321C77.1793 22.31 76.9268 22.3499 76.6898 22.4389C76.4528 22.5279 76.2363 22.6642 76.0533 22.8394C75.8703 23.0147 75.7247 23.2253 75.6252 23.4586C75.5257 23.6918 75.4744 23.9429 75.4744 24.1966C75.4744 24.4503 75.5257 24.7013 75.6252 24.9346C75.7247 25.1678 75.8703 25.3784 76.0533 25.5537C76.2363 25.729 76.4528 25.8652 76.6898 25.9542C76.9268 26.0432 77.1793 26.0832 77.4321 26.0716H99.0822C99.335 26.0832 99.5875 26.0432 99.8245 25.9542C100.062 25.8652 100.278 25.729 100.461 25.5537C100.644 25.3784 100.79 25.1678 100.889 24.9346C100.989 24.7013 101.04 24.4503 101.04 24.1966C101.04 23.9429 100.989 23.6918 100.889 23.4586C100.79 23.2253 100.644 23.0147 100.461 22.8394C100.278 22.6642 100.062 22.5279 99.8245 22.4389C99.5875 22.3499 99.335 22.31 99.0822 22.3215H102.823C103.32 22.3215 103.796 22.1238 104.147 21.7718C104.498 21.4197 104.696 20.9423 104.696 20.4445C104.696 19.9467 104.498 19.4693 104.147 19.1173C103.796 18.7653 103.32 18.5675 102.823 18.5675Z" fill="#252223"/>
<path opacity="0.1" d="M198.39 65.6873H195.717C195.97 65.6988 196.223 65.6589 196.459 65.5699C196.696 65.4809 196.913 65.3446 197.096 65.1694C197.279 64.9941 197.425 64.7835 197.524 64.5502C197.624 64.317 197.675 64.0659 197.675 63.8122C197.675 63.5585 197.624 63.3075 197.524 63.0742C197.425 62.841 197.279 62.6304 197.096 62.4551C196.913 62.2799 196.696 62.1436 196.459 62.0546C196.223 61.9656 195.97 61.9256 195.717 61.9372H174.067C173.814 61.9256 173.562 61.9656 173.325 62.0546C173.088 62.1436 172.871 62.2799 172.688 62.4551C172.505 62.6304 172.36 62.841 172.26 63.0742C172.161 63.3075 172.109 63.5585 172.109 63.8122C172.109 64.0659 172.161 64.317 172.26 64.5502C172.36 64.7835 172.505 64.9941 172.688 65.1694C172.871 65.3446 173.088 65.4809 173.325 65.5699C173.562 65.6589 173.814 65.6988 174.067 65.6873H176.74C176.243 65.6873 175.767 65.885 175.416 66.237C175.065 66.589 174.867 67.0665 174.867 67.5643C174.867 68.0621 175.065 68.5395 175.416 68.8915C175.767 69.2435 176.243 69.4413 176.74 69.4413H172.999C172.746 69.4297 172.493 69.4697 172.256 69.5587C172.019 69.6477 171.803 69.784 171.62 69.9592C171.437 70.1345 171.291 70.3451 171.192 70.5783C171.092 70.8116 171.041 71.0627 171.041 71.3163C171.041 71.57 171.092 71.8211 171.192 72.0543C171.291 72.2876 171.437 72.4982 171.62 72.6735C171.803 72.8487 172.019 72.985 172.256 73.074C172.493 73.163 172.746 73.2029 172.999 73.1914H194.649C194.902 73.2029 195.154 73.163 195.391 73.074C195.628 72.985 195.845 72.8487 196.028 72.6735C196.211 72.4982 196.356 72.2876 196.456 72.0543C196.555 71.8211 196.607 71.57 196.607 71.3163C196.607 71.0627 196.555 70.8116 196.456 70.5783C196.356 70.3451 196.211 70.1345 196.028 69.9592C195.845 69.784 195.628 69.6477 195.391 69.5587C195.154 69.4697 194.902 69.4297 194.649 69.4413H198.39C198.636 69.4413 198.879 69.3927 199.106 69.2984C199.334 69.2041 199.54 69.0658 199.714 68.8915C199.888 68.7172 200.026 68.5103 200.12 68.2826C200.214 68.0549 200.262 67.8108 200.262 67.5643C200.262 67.3178 200.214 67.0737 200.12 66.846C200.026 66.6183 199.888 66.4113 199.714 66.237C199.54 66.0627 199.334 65.9245 199.106 65.8302C198.879 65.7358 198.636 65.6873 198.39 65.6873Z" fill="#252223"/>
<path opacity="0.1" d="M361.164 4.15901H358.491C358.744 4.17056 358.996 4.13062 359.233 4.0416C359.47 3.95258 359.687 3.81633 359.87 3.64108C360.053 3.46582 360.198 3.25521 360.298 3.02195C360.397 2.7887 360.449 2.53764 360.449 2.28395C360.449 2.03026 360.397 1.77921 360.298 1.54595C360.198 1.3127 360.053 1.10208 359.87 0.926828C359.687 0.751575 359.47 0.615325 359.233 0.526306C358.996 0.437286 358.744 0.397347 358.491 0.408899H336.841C336.588 0.397347 336.335 0.437286 336.098 0.526306C335.861 0.615325 335.645 0.751575 335.462 0.926828C335.279 1.10208 335.133 1.3127 335.034 1.54595C334.934 1.77921 334.883 2.03026 334.883 2.28395C334.883 2.53764 334.934 2.7887 335.034 3.02195C335.133 3.25521 335.279 3.46582 335.462 3.64108C335.645 3.81633 335.861 3.95258 336.098 4.0416C336.335 4.13062 336.588 4.17056 336.841 4.15901H339.514C339.017 4.15901 338.541 4.35676 338.189 4.70877C337.838 5.06077 337.641 5.5382 337.641 6.03601C337.641 6.53382 337.838 7.01124 338.189 7.36325C338.541 7.71525 339.017 7.91301 339.514 7.91301H335.772C335.52 7.90146 335.267 7.9414 335.03 8.03042C334.793 8.11944 334.577 8.25569 334.394 8.43094C334.211 8.6062 334.065 8.81681 333.965 9.05007C333.866 9.28332 333.815 9.53438 333.815 9.78806C333.815 10.0418 333.866 10.2928 333.965 10.5261C334.065 10.7593 334.211 10.9699 334.394 11.1452C334.577 11.3204 334.793 11.4567 335.03 11.5457C335.267 11.6347 335.52 11.6747 335.772 11.6631H357.423C357.675 11.6747 357.928 11.6347 358.165 11.5457C358.402 11.4567 358.618 11.3204 358.801 11.1452C358.984 10.9699 359.13 10.7593 359.229 10.5261C359.329 10.2928 359.38 10.0418 359.38 9.78806C359.38 9.53438 359.329 9.28332 359.229 9.05007C359.13 8.81681 358.984 8.6062 358.801 8.43094C358.618 8.25569 358.402 8.11944 358.165 8.03042C357.928 7.9414 357.675 7.90146 357.423 7.91301H361.164C361.66 7.91301 362.136 7.71525 362.488 7.36325C362.839 7.01124 363.036 6.53382 363.036 6.03601C363.036 5.5382 362.839 5.06077 362.488 4.70877C362.136 4.35676 361.66 4.15901 361.164 4.15901Z" fill="#252223"/>
<path d="M274.074 205.941C274.228 205.941 274.377 205.879 274.486 205.77C274.595 205.66 274.657 205.511 274.657 205.357C274.657 205.202 274.595 205.053 274.486 204.943C274.377 204.834 274.228 204.772 274.074 204.772C273.919 204.772 273.771 204.834 273.662 204.943C273.553 205.053 273.491 205.202 273.491 205.357C273.491 205.511 273.553 205.66 273.662 205.77C273.771 205.879 273.919 205.941 274.074 205.941Z" fill="#535461"/>
<g opacity="0.5">
<path opacity="0.5" d="M202.799 172.517L197.154 145.88H197.733L197.644 145.429H197.807L194.886 131.02C194.886 131.02 195.033 115.969 195.744 110.147C196.265 105.899 197.088 100.486 196.486 95.9296C196.569 95.8039 196.646 95.6739 196.715 95.5402C196.965 95.0556 197.115 94.526 197.158 93.9825C197.376 92.709 197.205 91.3994 196.669 90.2246L202.539 86.5485C202.671 86.5485 202.807 86.5757 202.927 86.5835C202.927 86.529 202.873 86.4433 202.83 86.3304C205.607 86.4768 208.358 85.7303 210.682 84.1997C213.007 82.6692 214.782 80.4346 215.751 77.8216C216.268 78.5995 216.907 79.2886 217.643 79.8621C219.224 81.0499 221.714 81.3147 223.031 79.8388C223.511 79.2498 223.835 78.5495 223.975 77.8021C224.053 77.4672 224.107 77.1245 224.154 76.7857C224.9 72.8059 223.264 68.7014 221.155 65.2122C218.517 60.8546 215.017 56.9098 210.569 54.4331C206.121 51.9564 200.662 51.0685 195.849 52.7196C191.036 54.3708 186.188 58.853 185.749 63.9349C185.531 66.5323 185.842 67.7356 185.306 70.2863C185.038 71.5558 185.617 74.0287 185.609 75.4306C185.562 75.688 185.531 75.9481 185.516 76.2094C185.438 77.7671 186.056 79.2391 186.506 80.7345C180.158 81.0538 163.465 82.3428 158.644 87.2572C152.646 93.3672 137.938 95.5519 137.938 95.5519L113.444 100.494L104.898 104.131L104.995 104.52L104.824 104.594C104.824 104.594 105.127 105.727 105.562 107.223C103.655 108.953 102.407 111.293 102.031 113.843C101.557 116.487 101.809 119.891 103.48 124.233C103.48 124.233 111.914 139.759 112.496 146.021L123.141 167.318C122.228 169.144 113.106 187.603 111.537 197.934C111.413 198.678 111.329 199.428 111.284 200.181C111.284 200.181 111.226 200.726 111.082 201.634C110.457 205.462 108.48 214.874 103.651 219.274L103.713 219.329L103.573 219.465L103.682 219.559C102.233 222.335 104.327 226.097 104.327 226.097L106.708 236.759L109.373 237.192L112.178 236.047L113.732 239.041C113.732 239.041 125.833 240.988 129.271 240.875C132.709 240.763 126.358 234.921 124.132 233.188C122.896 232.23 121.929 228.293 121.315 224.979C121.639 224.716 121.93 224.414 122.181 224.08C122.181 224.08 120.701 216.291 125.157 205.606C127.057 201.057 129.1 195.827 130.829 191.322C131.757 197.373 132.733 203.608 133.451 207.864C134.496 214.029 134.36 217.791 134.038 219.913C133.978 220.653 133.804 221.38 133.521 222.066C133.535 222.086 133.548 222.107 133.56 222.129C133.54 222.184 133.515 222.237 133.486 222.288C133.509 222.327 133.533 222.362 133.552 222.401C131.12 225.19 133.653 229.738 133.653 229.738L136.035 240.369L138.7 240.801L141.504 239.657L143.058 242.651C143.058 242.651 155.16 244.598 158.598 244.485C162.036 244.372 155.684 238.531 153.454 236.798C151.718 235.447 150.513 228.192 150.067 225.081C150.389 225.049 150.568 225.026 150.568 225.026L150.533 224.812H150.607L149.084 215.886C146.481 213.639 146.842 181.719 146.842 181.719C146.842 181.719 145.486 185.056 145.444 184.787C145.576 184.25 146.065 182.731 147.2 179.495C147.866 177.639 148.359 175.726 148.672 173.778C149.903 166.181 147.607 161.535 147.607 161.535C147.759 160.009 146.155 154.078 144.259 147.761L150.214 136.125C151.042 136.438 151.941 136.512 152.809 136.34L157.32 128.162C157.32 128.162 166.643 122.593 169.312 123.025C171.794 123.415 179.572 121.709 182.579 118.461C182.795 118.224 182.992 117.97 183.169 117.702C185.589 113.983 184.595 137.118 184.595 137.118L183.301 145.133L183.231 145.577L187.089 145.655L196.179 176.909C196.179 176.909 196.75 187.509 207.08 189.865C217.41 192.221 202.799 172.517 202.799 172.517ZM140.708 136.394C140.149 134.665 139.659 133.174 139.29 132.056L141.213 130.553C141.213 130.553 141.454 130.755 141.862 131.079L140.708 136.394Z" fill="url(#paint0_linear)"/>
</g>
<path d="M150.082 221.7C150.082 221.7 151.399 232.822 153.579 234.512C155.758 236.202 161.943 241.876 158.59 242.001C155.237 242.125 143.439 240.217 143.439 240.217L141.912 237.297L139.193 238.41L136.594 237.99L134.263 227.596C134.263 227.596 130.992 221.724 135.596 219.352C140.199 216.981 150.082 221.7 150.082 221.7Z" fill="#3A384D"/>
<path opacity="0.1" d="M139.014 130.518C139.014 130.518 148.163 157.812 147.817 161.317C147.817 161.317 151.17 168.093 147.472 178.627C143.773 189.161 147.083 181.014 147.083 181.014C147.083 181.014 146.733 212.125 149.266 214.317L150.75 223.017C150.75 223.017 136.485 224.715 134.084 220.318C134.084 220.318 135.941 217.059 134.123 206.299C132.305 195.539 128.801 171.831 128.801 171.831L119.307 117.753L139.014 130.518Z" fill="black"/>
<path d="M139.049 130.3C139.049 130.3 148.198 157.61 147.852 161.115C147.852 161.115 151.205 167.89 147.506 178.424C143.808 188.958 147.118 180.811 147.118 180.811C147.118 180.811 146.768 211.926 149.301 214.115L150.785 222.818C150.785 222.818 136.52 224.512 134.119 220.116C134.119 220.116 135.976 216.856 134.158 206.096C132.34 195.337 128.832 171.617 128.832 171.617L119.342 117.535L139.049 130.3Z" fill="#BEC7DE"/>
<path opacity="0.1" d="M121.696 118.952L131 171.968C131 171.968 134.496 195.687 136.326 206.447C138.156 217.207 136.287 220.466 136.287 220.466C136.986 221.747 138.684 222.507 140.743 222.947C137.853 222.608 135.246 221.817 134.337 220.151C134.337 220.151 136.198 216.891 134.38 206.131C132.562 195.372 129.054 171.652 129.054 171.652L119.559 117.57L121.696 118.952Z" fill="black"/>
<path d="M121.552 218.192C121.552 218.192 122.865 229.314 125.048 231.004C127.232 232.694 133.412 238.368 130.06 238.492C126.707 238.617 114.909 236.709 114.909 236.709L113.382 233.788L110.663 234.906L108.064 234.481L105.733 224.088C105.733 224.088 102.462 218.215 107.062 215.844C111.661 213.472 121.552 218.192 121.552 218.192Z" fill="#3A384D"/>
<path opacity="0.1" d="M139.014 130.518C139.014 130.518 148.163 157.812 147.817 161.317C147.817 161.317 151.17 168.093 147.472 178.627C143.773 189.161 147.083 181.014 147.083 181.014C147.083 181.014 146.733 212.125 149.266 214.317L150.75 223.017C150.75 223.017 136.485 224.715 134.084 220.318C134.084 220.318 135.941 217.059 134.123 206.299C132.305 195.539 128.801 171.831 128.801 171.831L119.307 117.753L139.014 130.518Z" fill="black"/>
<path opacity="0.1" d="M110.022 106.452C110.022 106.452 99.8397 110.369 105.317 124.614C105.317 124.614 113.541 139.747 114.112 145.853L124.524 166.687C124.524 166.687 113.421 188.713 112.928 198.651C112.928 198.651 111.444 211.992 105.453 217.475C105.453 217.475 118.339 228.469 123.137 222.121C123.137 222.121 121.696 214.543 126.043 204.114C130.39 193.686 135.545 179.62 135.545 179.62C135.545 179.62 148.011 171.173 139.706 153.797L130.382 115.109L130.231 106.401L123.079 103.909L110.022 106.452Z" fill="black"/>
<path opacity="0.1" d="M109.556 106.596C109.556 106.596 99.3736 110.513 104.851 124.758C104.851 124.758 113.071 139.895 113.643 146.001L124.054 166.835C124.054 166.835 112.951 188.857 112.465 198.799C112.465 198.799 110.981 212.136 104.987 217.623C104.987 217.623 117.873 228.617 122.675 222.269C122.675 222.269 121.23 214.687 125.577 204.262C129.924 193.837 135.079 179.752 135.079 179.752C135.079 179.752 147.549 171.306 139.243 153.93L129.92 115.241L129.768 106.533L122.62 104.041L109.556 106.596Z" fill="black"/>
<path d="M109.591 106.382C109.591 106.382 99.4085 110.303 104.886 124.544C104.886 124.544 110.927 135.662 113.009 142.683C113.918 145.699 115.088 148.63 116.506 151.441L124.089 166.629C124.089 166.629 112.986 188.654 112.496 198.592C112.496 198.592 111.012 211.934 105.018 217.417C105.018 217.417 117.904 228.41 122.706 222.063C122.706 222.063 121.261 214.485 125.608 204.056C129.955 193.627 135.11 179.546 135.11 179.546C135.11 179.546 147.58 171.099 139.275 153.723L129.951 115.035L129.799 106.327L122.651 103.835L109.591 106.382Z" fill="#BEC7DE"/>
<path opacity="0.1" d="M109.591 106.382L122.663 103.823L124.368 104.419L112.19 106.798C112.19 106.798 102.007 110.716 107.485 124.961C107.485 124.961 113.522 136.079 115.608 143.1C116.517 146.116 117.687 149.046 119.105 151.858L126.692 167.045C126.692 167.045 115.573 189.063 115.095 199.001C115.095 199.001 113.608 212.343 107.617 217.826C107.617 217.826 113.169 222.561 118.339 224.021C112.636 223.905 105.018 217.401 105.018 217.401C111.012 211.918 112.496 198.577 112.496 198.577C112.986 188.639 124.089 166.613 124.089 166.613L116.506 151.426C115.088 148.614 113.918 145.684 113.009 142.668C110.927 135.658 104.886 124.529 104.886 124.529C99.4085 110.303 109.591 106.382 109.591 106.382Z" fill="black"/>
<path d="M151.543 134.104L143.435 149.934C143.435 149.934 145.813 171.025 141.271 171.625C136.73 172.225 138.552 148.478 138.552 148.478L142.922 128.255L151.543 134.104Z" fill="#BE7C5E"/>
<path d="M195.857 144.401L201.653 171.831C201.653 171.831 215.879 191.057 205.81 188.759C195.74 186.462 195.185 176.115 195.185 176.115L185.473 142.703L195.857 144.401Z" fill="#BE7C5E"/>
<path d="M201.634 87.892L187.299 96.9265L182.182 83.1839C182.182 83.1839 194.047 83.9939 195.43 79.5428C196.813 75.0918 201.634 87.892 201.634 87.892Z" fill="#BE7C5E"/>
<path d="M194.272 93.6048L193.355 89.6677L179.226 90.4972L173.535 113.399L184.137 113.781L190.073 104.501L193.309 95.4506L194.272 93.6048Z" fill="#BE7C5E"/>
<path opacity="0.1" d="M189.385 89.473L190.55 82.8724C190.55 82.8724 164.402 83.1995 158.555 89.1537C152.708 95.1079 138.373 97.242 138.373 97.242L114.497 102.055L106.149 105.603C106.149 105.603 108.503 114.443 109.513 115.054C110.523 115.665 121.797 106.354 121.797 106.354L126.07 107.491L112.155 122.157L137.837 147.469L138.311 133.52L141.602 130.942C141.602 130.942 149.422 137.562 152.91 136.558L157.308 128.586C157.308 128.586 166.398 123.158 168.997 123.578C171.417 123.968 179.001 122.297 181.93 119.131C182.135 118.909 182.322 118.671 182.489 118.419C184.851 114.793 183.88 137.344 183.88 137.344L182.551 145.588L196.719 145.88L193.876 131.838C193.876 131.838 194.019 117.169 194.711 111.491C195.402 105.813 196.653 98.0052 194.116 93.1375L189.128 97.8962L180.45 111.861L183.744 99.7031L189.385 89.473Z" fill="black"/>
<path d="M189.459 89.0369L188.219 82.2649C188.219 82.2649 164.487 82.7633 158.64 88.7176C152.794 94.6718 138.439 96.8019 138.439 96.8019L114.563 101.619L106.25 105.171C106.25 105.171 108.604 114.01 109.614 114.618C110.624 115.225 121.902 105.922 121.902 105.922L126.175 107.059L112.26 121.725L137.942 147.037L138.416 133.084L141.718 130.502C141.718 130.502 149.538 137.122 153.027 136.122L157.424 128.15C157.424 128.15 166.464 122.722 169.079 123.154C171.499 123.543 179.082 121.869 182.011 118.703C182.217 118.481 182.404 118.243 182.571 117.99C184.933 114.365 183.962 136.92 183.962 136.92L182.633 145.164L196.801 145.456L193.957 131.414C193.957 131.414 194.101 116.74 194.793 111.066C195.484 105.393 196.735 97.5768 194.198 92.713L189.21 97.4522L180.52 111.405L183.814 99.2475L189.459 89.0369Z" fill="#7FAFF2"/>
<path opacity="0.1" d="M159.526 97.6586C159.526 97.6586 145.381 109.618 143.901 116.059L159.526 97.6586Z" fill="black"/>
<path opacity="0.1" d="M174.968 107.967C174.968 107.967 164.091 116.222 162.148 121.472L174.968 107.967Z" fill="black"/>
<path opacity="0.1" d="M143.202 120.397C143.202 120.397 142.181 125.35 141.979 127.991L143.202 120.397Z" fill="black"/>
<path opacity="0.1" d="M138.031 131.803C138.031 131.803 121.738 117.141 119.458 117.441L138.031 131.803Z" fill="black"/>
<path opacity="0.1" d="M195.601 79.7921C196.925 75.5318 201.401 87.082 201.777 88.075C201.352 88.051 200.928 88.0042 200.507 87.9348C198.808 87.6623 197.182 87.0456 195.729 86.1223C194.275 85.199 193.025 83.9885 192.054 82.5647C193.798 82.0156 195.189 81.1472 195.601 79.7921Z" fill="black"/>
<path d="M202.364 87.8492C209.388 87.8492 215.083 82.141 215.083 75.0996C215.083 68.0582 209.388 62.35 202.364 62.35C195.339 62.35 189.645 68.0582 189.645 75.0996C189.645 82.141 195.339 87.8492 202.364 87.8492Z" fill="#BE7C5E"/>
<path opacity="0.1" d="M212.694 76.9376C213.692 78.5849 214.601 80.3723 216.143 81.525C217.686 82.6777 220.114 82.9386 221.396 81.5016C221.862 80.9267 222.177 80.2439 222.312 79.5156C223.253 75.5007 221.609 71.3378 219.477 67.7979C216.905 63.5494 213.49 59.7058 209.158 57.2836C204.827 54.8614 199.501 54.0008 194.808 55.613C190.115 57.2252 186.261 61.5322 185.873 66.4856C185.659 69.0168 186.296 71.5987 185.772 74.0871C185.5 75.3838 184.913 76.6183 184.847 77.9423C184.723 80.3995 186.401 82.6854 186.25 85.1427C186.156 86.6575 185.383 88.0322 184.909 89.4769C183.744 92.9583 184.373 96.7474 184.132 100.408C183.892 104.068 182.295 108.173 178.799 109.256C182.664 111.203 187.994 109.154 189.567 105.112C190.045 103.878 190.22 102.507 190.946 101.401C192.174 99.5317 194.726 98.7918 195.756 96.8058C196.785 94.8198 195.892 92.4015 194.765 90.4738C193.639 88.5462 192.232 86.6069 192.209 84.3755C192.217 83.286 192.556 82.2247 193.181 81.3329C193.805 80.4412 194.686 79.7611 195.705 79.3832C196.766 79.0132 197.912 78.9937 199.027 78.8691C201.793 78.513 204.435 77.5025 206.734 75.9212C209.722 73.9624 210.522 73.3549 212.694 76.9376Z" fill="black"/>
<path d="M212.775 76.3808C213.774 78.0319 214.683 79.8154 216.225 80.972C217.767 82.1286 220.195 82.3856 221.477 80.9486C221.943 80.3732 222.258 79.6907 222.394 78.9626C223.334 74.9477 221.691 70.7848 219.558 67.245C216.986 62.9925 213.572 59.1528 209.24 56.7306C204.909 54.3084 199.583 53.4517 194.89 55.06C190.197 56.6683 185.473 61.0415 185.057 65.9949C184.844 68.5262 185.15 69.6983 184.626 72.1828C184.354 73.4796 184.987 76.077 184.921 77.3932C184.797 79.8505 186.475 82.1364 186.324 84.5936C186.23 86.1084 185.457 87.4831 184.983 88.924C183.818 92.4093 184.447 96.1983 184.206 99.8588C183.966 103.519 182.369 107.62 178.873 108.703C182.738 110.65 188.068 108.601 189.641 104.559C190.119 103.329 190.294 101.958 191.02 100.852C192.248 98.9827 194.8 98.2428 195.83 96.2567C196.859 94.2707 195.966 91.8485 194.843 89.9209C193.72 87.9932 192.306 86.0578 192.283 83.8226C192.292 82.7337 192.631 81.6733 193.256 80.7823C193.88 79.8913 194.76 79.2118 195.779 78.8341C196.84 78.4641 197.986 78.4447 199.101 78.3201C201.866 77.9621 204.508 76.9519 206.808 75.3721C209.811 73.4056 210.612 72.802 212.775 76.3808Z" fill="#723647"/>
<path d="M186.38 83.7612L191.776 84.6354C192.195 84.7033 192.59 84.4184 192.658 83.9991C192.725 83.5798 192.44 83.1848 192.021 83.1169L186.625 82.2427C186.206 82.1748 185.811 82.4596 185.743 82.879C185.676 83.2983 185.961 83.6933 186.38 83.7612Z" fill="#252A62"/>
<path d="M175.26 191.38C175.349 197.479 180.481 202.284 186.564 202.284H187.411C188.159 202.282 188.879 202.572 189.416 203.094C189.823 203.476 190.106 203.973 190.228 204.519C190.285 204.739 190.314 204.966 190.313 205.193V215.96C190.309 218.031 190.9 220.059 192.015 221.802C193.637 224.271 194.516 227.156 194.548 230.112C194.547 230.802 194.685 231.485 194.951 232.122C195.217 232.758 195.607 233.335 196.098 233.819C196.589 234.302 197.172 234.683 197.811 234.938C198.451 235.194 199.135 235.319 199.823 235.307C202.667 235.256 204.897 232.803 204.897 229.948V227.257L206.311 227.421V230.12C206.311 230.809 206.449 231.491 206.715 232.127C206.981 232.762 207.371 233.338 207.862 233.821C208.353 234.304 208.934 234.684 209.573 234.939C210.212 235.194 210.895 235.319 211.583 235.307C214.43 235.256 216.66 232.803 216.66 229.948V228.585C218.07 229.177 226.069 229.177 228.287 228.585L228.889 228.539V230.096C228.887 230.788 229.023 231.473 229.288 232.111C229.553 232.749 229.943 233.328 230.435 233.813C230.926 234.298 231.509 234.681 232.15 234.937C232.79 235.193 233.475 235.319 234.165 235.307C237.009 235.256 239.239 232.803 239.239 229.948V227.713L239.709 227.67V230.124C239.71 230.813 239.848 231.495 240.115 232.13C240.382 232.765 240.772 233.34 241.263 233.823C241.754 234.305 242.336 234.685 242.975 234.94C243.614 235.194 244.297 235.319 244.984 235.307C246.238 235.264 247.436 234.775 248.362 233.926C249.287 233.077 249.881 231.925 250.034 230.677C250.064 230.435 250.079 230.192 250.081 229.948V218.686C250.085 214.818 248.792 211.06 246.41 208.016C245.997 207.478 245.766 206.821 245.75 206.142C245.734 205.463 245.934 204.797 246.321 204.239C248.954 200.372 252.851 193.845 252.723 189.219C252.75 187.964 252.311 186.745 251.491 185.796C251.441 185.738 251.386 185.683 251.336 185.629C247.544 181.649 240.87 184.78 241.449 190.251C241.646 192.083 241.514 193.936 241.061 195.722C240.798 196.73 240.443 197.712 240 198.655C239.557 199.6 238.828 200.383 237.917 200.891C237.005 201.399 235.958 201.607 234.922 201.486C234.219 201.399 233.51 201.356 232.801 201.357H211.046C209.769 201.358 208.524 200.957 207.486 200.212C206.448 199.467 205.669 198.414 205.258 197.202C205.037 196.568 204.925 195.9 204.928 195.228V178.249C204.928 177.807 204.84 177.369 204.668 176.961C204.496 176.554 204.244 176.185 203.928 175.877C203.611 175.569 203.236 175.328 202.824 175.168C202.413 175.009 201.974 174.933 201.533 174.947C201.102 174.962 200.679 175.064 200.289 175.247C199.898 175.43 199.548 175.689 199.26 176.01C198.671 176.66 198.344 177.507 198.343 178.385C198.344 178.615 198.299 178.843 198.211 179.055C198.124 179.267 197.995 179.46 197.833 179.623C197.671 179.785 197.479 179.914 197.267 180.002C197.055 180.089 196.828 180.134 196.599 180.134H186.316C184.85 180.134 183.399 180.426 182.047 180.993C180.695 181.56 179.468 182.391 178.44 183.438C177.411 184.484 176.6 185.725 176.054 187.089C175.508 188.452 175.238 189.911 175.26 191.38Z" fill="#F3AD55"/>
<path d="M239.887 231.413C240.179 232.543 240.842 233.542 241.77 234.249C242.697 234.956 243.835 235.328 245 235.307C246.254 235.264 247.451 234.775 248.377 233.926C249.303 233.077 249.896 231.925 250.05 230.677C246.88 229.832 242.537 229.247 239.887 231.413Z" fill="#FBDCA3"/>
<path d="M229.049 231.413C229.341 232.544 230.005 233.543 230.933 234.249C231.861 234.956 233 235.328 234.165 235.307C235.415 235.26 236.608 234.768 237.529 233.919C238.45 233.071 239.04 231.921 239.192 230.677C236.061 229.832 231.729 229.247 229.049 231.413Z" fill="#FBDCA3"/>
<path d="M206.478 231.413C206.77 232.543 207.433 233.542 208.36 234.249C209.288 234.956 210.426 235.328 211.59 235.307C212.844 235.264 214.042 234.775 214.968 233.926C215.894 233.077 216.487 231.925 216.641 230.677C213.471 229.832 209.135 229.247 206.478 231.413Z" fill="#FBDCA3"/>
<path d="M194.707 231.413C194.999 232.544 195.662 233.544 196.591 234.25C197.519 234.957 198.658 235.329 199.823 235.307C201.073 235.26 202.266 234.768 203.187 233.919C204.108 233.071 204.698 231.921 204.85 230.677C201.719 229.832 197.376 229.247 194.707 231.413Z" fill="#FBDCA3"/>
<path d="M241.03 195.722C244.685 194.25 249.145 191.555 252.684 189.219C252.711 187.964 252.272 186.745 251.453 185.796C251.402 185.738 251.348 185.683 251.297 185.628C247.506 181.649 240.831 184.78 241.41 190.251C241.61 192.083 241.481 193.936 241.03 195.722Z" fill="#FBDCA3"/>
<path d="M236.605 201.388C236.605 201.388 226.539 214.091 210.072 201.357L236.605 201.388Z" fill="#FBDCA3"/>
<path d="M204.897 177.778C204.897 177.778 198.782 185.796 204.897 195.691V177.778Z" fill="#FBDCA3"/>
<path d="M190.313 205.131C190.313 205.131 195.701 211.836 190.383 217.171L190.313 205.131Z" fill="#FBDCA3"/>
<path opacity="0.1" d="M189.843 203.713C190.232 204.103 190.107 204.453 190.232 205.006L207.713 200.415C206.773 199.687 205.604 198.826 205.219 197.689C203.129 199.305 198.984 202.039 189.843 203.713Z" fill="black"/>
<path d="M189.416 203.11C189.823 203.492 190.106 203.989 190.228 204.535L207.278 200.08C206.326 199.344 205.613 198.343 205.227 197.202C203.129 198.834 198.557 201.427 189.416 203.11Z" fill="#383F4D"/>
<path opacity="0.1" d="M204.586 198.144C204.586 198.144 199.252 202.167 190.313 203.413L204.586 198.144Z" fill="black"/>
<path d="M204.586 197.673C204.586 197.673 199.252 201.696 190.313 202.942L204.586 197.673Z" fill="#F3AD55"/>
<path opacity="0.1" d="M191.253 198.055C191.253 198.055 182.318 200.886 179.964 191.925L191.253 198.055Z" fill="black"/>
<path d="M191.253 197.584C191.253 197.584 182.318 200.415 179.964 191.454L191.253 197.584Z" fill="#FBDCA3"/>
<path d="M175.26 191.925C175.779 191.925 176.2 191.186 176.2 190.274C176.2 189.362 175.779 188.623 175.26 188.623C174.74 188.623 174.32 189.362 174.32 190.274C174.32 191.186 174.74 191.925 175.26 191.925Z" fill="#383F4D"/>
<path opacity="0.1" d="M246.53 224.228L244.65 209.138C244.65 209.138 250.295 218.094 246.53 224.228Z" fill="black"/>
<path d="M244.18 209.138C244.18 209.138 249.825 218.094 246.06 224.228L244.18 209.138Z" fill="#FBDCA3"/>
<defs>
<linearGradient id="paint0_linear" x1="98.494" y1="135.821" x2="216.149" y2="154.789" gradientUnits="userSpaceOnUse">
<stop stop-color="#808080" stop-opacity="0.25"/>
<stop offset="0.54" stop-color="#808080" stop-opacity="0.12"/>
<stop offset="1" stop-color="#808080" stop-opacity="0.1"/>
</linearGradient>
</defs>
</svg>
