<svg width="32" height="32" viewBox="0 0 32 32" fill="none" xmlns="http://www.w3.org/2000/svg">
<path d="M25.3333 14.6666H9.51998L14.36 8.85331C14.5863 8.58103 14.6952 8.22998 14.6627 7.87742C14.6302 7.52485 14.4589 7.19963 14.1866 6.97331C13.9144 6.747 13.5633 6.63811 13.2107 6.67062C12.8582 6.70313 12.533 6.87436 12.3066 7.14665L5.63998 15.1466C5.59513 15.2103 5.55502 15.2771 5.51998 15.3466C5.51998 15.4133 5.51998 15.4533 5.42665 15.52C5.36621 15.6729 5.33457 15.8356 5.33331 16C5.33457 16.1644 5.36621 16.3271 5.42665 16.48C5.42665 16.5466 5.42665 16.5866 5.51998 16.6533C5.55502 16.7228 5.59513 16.7897 5.63998 16.8533L12.3066 24.8533C12.432 25.0038 12.589 25.1249 12.7664 25.2078C12.9439 25.2908 13.1374 25.3336 13.3333 25.3333C13.6448 25.3339 13.9468 25.2254 14.1866 25.0266C14.3217 24.9147 14.4333 24.7772 14.5151 24.6221C14.5969 24.467 14.6473 24.2972 14.6634 24.1226C14.6795 23.948 14.661 23.7719 14.6089 23.6044C14.5568 23.4369 14.4722 23.2814 14.36 23.1466L9.51998 17.3333H25.3333C25.6869 17.3333 26.0261 17.1928 26.2761 16.9428C26.5262 16.6927 26.6666 16.3536 26.6666 16C26.6666 15.6464 26.5262 15.3072 26.2761 15.0572C26.0261 14.8071 25.6869 14.6666 25.3333 14.6666Z" fill="#333"/>
</svg>
