<svg width="27" height="37" viewBox="0 0 27 37" fill="none" xmlns="http://www.w3.org/2000/svg">
<path d="M20.7363 13.2485C20.452 12.4113 19.9124 11.6844 19.1934 11.17C18.4744 10.6556 17.6122 10.3796 16.7281 10.3808H13.333V0.333328L11.9062 0.537156C8.66955 0.9995 6.14838 2.63966 4.41345 5.41216C3.16259 7.41067 2.58111 9.61528 2.31127 11.2642C0.448218 12.6976 -1.17256 14.6713 -2.51202 17.1392C-3.64084 19.2187 -4.5753 21.6561 -5.28952 24.3836C-6.49631 28.9922 -6.65967 32.815 -6.666 32.9754L-6.66663 37.3996H-4.16702V33.053C-4.13577 32.41 -3.34858 18.3382 4.19486 12.9799L4.63705 12.6658L4.7097 12.1282C5.08587 9.34489 6.38587 4.74786 10.833 3.33481V12.8808H16.7281C17.0895 12.8798 17.4422 12.992 17.7365 13.2019C18.0308 13.4117 18.2519 13.7086 18.3687 14.0507C19.3653 16.9925 21.0778 20.6739 23.7467 22.4039L22.9441 25.4139C22.6647 26.4873 22.0292 27.4341 21.1416 28.0993C20.254 28.7645 19.1669 29.1087 18.0581 29.0756C15.8185 29.0084 13.4874 29.3006 11.1293 29.9436L10.208 30.1948V37.3996H12.708V32.1236C14.4356 31.7155 16.2084 31.5309 17.983 31.5744C19.6542 31.6205 21.292 31.1007 22.6309 30.0995C23.9697 29.0982 24.9312 27.6741 25.3594 26.058L26.6944 21.0517L25.7002 20.6256C23.8408 19.8287 22.078 17.2088 20.7363 13.2485Z" fill="#777777"/>
</svg>
