<svg width="40" height="40" viewBox="0 0 40 40" fill="none" xmlns="http://www.w3.org/2000/svg">
<path d="M21.5399 4.788C22.3719 4.188 23.3399 4 23.9999 4H26.8919C27.7979 3.99993 28.687 4.24602 29.4639 4.712L33.0299 6.852C33.3258 7.02973 33.5706 7.28098 33.7405 7.58133C33.9105 7.88167 33.9999 8.22089 33.9999 8.566V11C33.9999 11.7956 33.6839 12.5587 33.1213 13.1213C32.5587 13.6839 31.7956 14 30.9999 14H29.9999V30.076C30.8419 30.206 31.6859 30.52 32.3899 31.106C33.4099 31.954 33.9999 33.26 33.9999 35C33.9999 35.2652 33.8946 35.5196 33.707 35.7071C33.5195 35.8946 33.2652 36 32.9999 36H9.99994C8.74116 36.0001 7.51421 35.6044 6.49277 34.8687C5.47132 34.1331 4.70712 33.0948 4.30833 31.9008C3.90954 30.7069 3.89635 29.4178 4.27065 28.2159C4.64494 27.0141 5.38775 25.9604 6.39394 25.204C6.60623 25.0509 6.8701 24.9871 7.1289 25.0263C7.38771 25.0655 7.62081 25.2047 7.77816 25.4139C7.93551 25.6231 8.00456 25.8856 7.97049 26.1451C7.93642 26.4047 7.80195 26.6405 7.59594 26.802C6.92487 27.3062 6.42941 28.0087 6.17971 28.81C5.93 29.6114 5.93872 30.471 6.20461 31.2671C6.4705 32.0633 6.9801 32.7556 7.66125 33.246C8.3424 33.7365 9.16058 34.0003 9.99994 34C10.5759 34 10.9399 33.86 11.1799 33.7C11.4172 33.5363 11.607 33.3127 11.7299 33.052C11.8906 32.7234 11.9825 32.3654 11.9999 32V31.91L12.0079 31.69C12.0743 30.5323 12.2483 29.3834 12.5279 28.258C13.0539 26.158 14.1199 23.466 16.2919 21.292C19.9799 17.606 19.9999 12.662 19.9999 11V8C19.9999 6.474 20.6599 5.424 21.5399 4.788ZM21.8479 13.8C21.5379 16.312 20.5899 19.824 17.7079 22.708C15.8799 24.534 14.9459 26.842 14.4699 28.742C14.222 29.7382 14.0666 30.7552 14.0059 31.78C14.0033 31.838 14.0013 31.896 13.9999 31.954V32.066L13.9919 32.2C13.9477 32.8275 13.7777 33.4396 13.4919 34H25.8379C25.6379 33.36 25.2319 32.702 24.5339 32.336C24.0578 32.1001 23.5311 31.9847 22.9999 32H20.9999C20.7347 32 20.4804 31.8946 20.2928 31.7071C20.1053 31.5196 19.9999 31.2652 19.9999 31C19.9999 30.7348 20.1053 30.4804 20.2928 30.2929C20.4804 30.1054 20.7347 30 20.9999 30H22.9999C23.3519 30 23.6839 30.028 23.9999 30.08V25C23.9999 24.7348 24.1053 24.4804 24.2928 24.2929C24.4804 24.1054 24.7347 24 24.9999 24C25.2652 24 25.5195 24.1054 25.707 24.2929C25.8946 24.4804 25.9999 24.7348 25.9999 25V30.896C27.1599 31.732 27.6939 32.976 27.8959 34H31.8959C31.7459 33.344 31.4459 32.922 31.1099 32.644C30.5959 32.214 29.8499 32 28.9999 32C28.7347 32 28.4804 31.8946 28.2928 31.7071C28.1053 31.5196 27.9999 31.2652 27.9999 31V13C27.9999 12.7348 28.1053 12.4804 28.2928 12.2929C28.4804 12.1054 28.7347 12 28.9999 12H30.9999C31.2652 12 31.5195 11.8946 31.707 11.7071C31.8946 11.5196 31.9999 11.2652 31.9999 11V8.566L28.4359 6.426C27.9694 6.1467 27.4357 5.99945 26.8919 6H23.9999C23.6599 6 23.1279 6.11 22.7099 6.412C22.3399 6.676 21.9999 7.126 21.9999 8V11C21.9999 11.174 22.0599 11.456 22.2119 11.666C22.3259 11.826 22.5259 12 22.9999 12C23.4739 12 23.6739 11.824 23.7879 11.666C23.9211 11.469 23.9947 11.2378 23.9999 11C23.9999 10.7348 24.1053 10.4804 24.2928 10.2929C24.4804 10.1054 24.7347 10 24.9999 10C25.2652 10 25.5195 10.1054 25.707 10.2929C25.8946 10.4804 25.9999 10.7348 25.9999 11C25.9999 11.494 25.8599 12.212 25.4119 12.834C24.9259 13.508 24.1259 14 22.9999 14C22.607 14.0037 22.2166 13.936 21.8479 13.8Z" fill="#777777"/>
</svg>
