<svg width="40" height="40" viewBox="0 0 40 40" fill="none" xmlns="http://www.w3.org/2000/svg">
<path d="M16.6666 26.6667H23.3333C23.7581 26.6671 24.1667 26.8298 24.4756 27.1214C24.7845 27.413 24.9703 27.8116 24.9952 28.2357C25.0201 28.6597 24.8822 29.0773 24.6095 29.4031C24.3369 29.7288 23.9501 29.9382 23.5283 29.9883L23.3333 30H16.6666C16.2418 29.9995 15.8332 29.8369 15.5243 29.5453C15.2154 29.2536 15.0296 28.8551 15.0047 28.431C14.9798 28.0069 15.1177 27.5894 15.3904 27.2636C15.663 26.9379 16.0498 26.7285 16.4716 26.6783L16.6666 26.6667H23.3333H16.6666ZM13.3333 18.3333H26.6666C27.0914 18.3338 27.5 18.4965 27.8089 18.7881C28.1178 19.0797 28.3037 19.4783 28.3286 19.9023C28.3535 20.3264 28.2155 20.744 27.9428 21.0697C27.6702 21.3955 27.2834 21.6048 26.8616 21.655L26.6666 21.6667H13.3333C12.9085 21.6662 12.4999 21.5035 12.191 21.2119C11.8821 20.9203 11.6962 20.5217 11.6713 20.0977C11.6464 19.6736 11.7844 19.256 12.0571 18.9303C12.3297 18.6045 12.7165 18.3952 13.1383 18.345L13.3333 18.3333H26.6666H13.3333ZM8.33328 10H31.6666C32.0914 10.0005 32.5 10.1631 32.8089 10.4547C33.1178 10.7464 33.3037 11.1449 33.3286 11.569C33.3535 11.9931 33.2155 12.4106 32.9428 12.7364C32.6702 13.0621 32.2834 13.2715 31.8616 13.3217L31.6666 13.3333H8.33328C7.90848 13.3329 7.49989 13.1702 7.191 12.8786C6.8821 12.587 6.69622 12.1884 6.67132 11.7643C6.64643 11.3403 6.7844 10.9227 7.05705 10.5969C7.3297 10.2712 7.71645 10.0618 8.13828 10.0117L8.33328 10H31.6666H8.33328Z" fill="#777777"/>
</svg>
