<svg width="40" height="40" viewBox="0 0 40 40" fill="none" xmlns="http://www.w3.org/2000/svg">
<path d="M9.73841 7.61335C12.46 4.89178 16.1512 3.36282 20.0001 3.36282C23.8489 3.36282 27.5402 4.89178 30.2617 7.61335C32.9833 10.3349 34.5123 14.0261 34.5123 17.875C34.5123 21.7239 32.9833 25.4151 30.2617 28.1367L28.2834 30.0933C26.8251 31.5233 24.9334 33.3633 22.6067 35.6133C21.9074 36.2895 20.9728 36.6675 20.0001 36.6675C19.0274 36.6675 18.0927 36.2895 17.3934 35.6133L11.5751 29.9533C10.8434 29.235 10.2317 28.63 9.73841 28.1367C8.39076 26.7891 7.32175 25.1893 6.59241 23.4286C5.86306 21.6679 5.48767 19.7808 5.48767 17.875C5.48767 15.9692 5.86306 14.0821 6.59241 12.3214C7.32175 10.5607 8.39076 8.96089 9.73841 7.61335ZM28.4934 9.38001C26.2404 7.12744 23.1848 5.86213 19.9989 5.86245C16.813 5.86276 13.7576 7.12866 11.5051 9.38168C9.2525 11.6347 7.9872 14.6903 7.98751 17.8762C7.98782 21.0621 9.25373 24.1174 11.5067 26.37L13.9834 28.8167C15.6942 30.4882 17.4098 32.1549 19.1301 33.8167C19.3632 34.0422 19.6749 34.1683 19.9992 34.1683C20.3236 34.1683 20.6353 34.0422 20.8684 33.8167L26.5251 28.3167C27.3084 27.5483 27.9634 26.9 28.4917 26.37C30.7442 24.1174 32.0097 21.0623 32.0097 17.8767C32.0097 14.6911 30.7442 11.636 28.4917 9.38335L28.4934 9.38001ZM20.0001 13.3317C20.6571 13.3317 21.3077 13.4611 21.9148 13.7125C22.5218 13.964 23.0734 14.3325 23.538 14.7971C24.0026 15.2617 24.3711 15.8133 24.6225 16.4203C24.874 17.0274 25.0034 17.678 25.0034 18.335C25.0034 18.9921 24.874 19.6427 24.6225 20.2497C24.3711 20.8567 24.0026 21.4083 23.538 21.8729C23.0734 22.3375 22.5218 22.706 21.9148 22.9575C21.3077 23.2089 20.6571 23.3383 20.0001 23.3383C18.6891 23.3144 17.44 22.7768 16.5214 21.8413C15.6027 20.9058 15.0881 19.647 15.0881 18.3358C15.0881 17.0247 15.6027 15.7659 16.5214 14.8304C17.44 13.8948 18.6891 13.3573 20.0001 13.3333V13.3317ZM20.0001 15.8317C19.6713 15.8317 19.3458 15.8964 19.0421 16.0222C18.7384 16.148 18.4624 16.3324 18.2299 16.5649C17.9975 16.7973 17.8131 17.0733 17.6873 17.377C17.5615 17.6807 17.4967 18.0063 17.4967 18.335C17.4967 18.6638 17.5615 18.9893 17.6873 19.293C17.8131 19.5967 17.9975 19.8727 18.2299 20.1051C18.4624 20.3376 18.7384 20.522 19.0421 20.6478C19.3458 20.7736 19.6713 20.8383 20.0001 20.8383C20.6638 20.8383 21.3003 20.5747 21.7696 20.1054C22.2389 19.6361 22.5026 18.9996 22.5026 18.3358C22.5026 17.6721 22.2389 17.0356 21.7696 16.5663C21.3003 16.097 20.6638 15.8333 20.0001 15.8333V15.8317Z" fill="#D16D79"/>
</svg>
