<svg width="32" height="32" viewBox="0 0 32 32" fill="none" xmlns="http://www.w3.org/2000/svg">
<path d="M10.6667 8.00001C10.6667 8.70725 10.3858 9.38553 9.88566 9.88563C9.38556 10.3857 8.70728 10.6667 8.00004 10.6667C7.2928 10.6667 6.61452 10.3857 6.11442 9.88563C5.61433 9.38553 5.33337 8.70725 5.33337 8.00001C5.33337 7.29277 5.61433 6.61449 6.11442 6.11439C6.61452 5.61429 7.2928 5.33334 8.00004 5.33334C8.70728 5.33334 9.38556 5.61429 9.88566 6.11439C10.3858 6.61449 10.6667 7.29277 10.6667 8.00001Z" fill="#333333"/>
<path d="M10.6667 16C10.6667 16.7073 10.3858 17.3855 9.88566 17.8856C9.38556 18.3857 8.70728 18.6667 8.00004 18.6667C7.2928 18.6667 6.61452 18.3857 6.11442 17.8856C5.61433 17.3855 5.33337 16.7073 5.33337 16C5.33337 15.2928 5.61433 14.6145 6.11442 14.1144C6.61452 13.6143 7.2928 13.3333 8.00004 13.3333C8.70728 13.3333 9.38556 13.6143 9.88566 14.1144C10.3858 14.6145 10.6667 15.2928 10.6667 16Z" fill="#333333"/>
<path d="M8.00004 26.6667C8.70728 26.6667 9.38556 26.3857 9.88566 25.8856C10.3858 25.3855 10.6667 24.7073 10.6667 24C10.6667 23.2928 10.3858 22.6145 9.88566 22.1144C9.38556 21.6143 8.70728 21.3333 8.00004 21.3333C7.2928 21.3333 6.61452 21.6143 6.11442 22.1144C5.61433 22.6145 5.33337 23.2928 5.33337 24C5.33337 24.7073 5.61433 25.3855 6.11442 25.8856C6.61452 26.3857 7.2928 26.6667 8.00004 26.6667Z" fill="#333333"/>
<path d="M18.6667 8.00001C18.6667 8.70725 18.3858 9.38553 17.8857 9.88563C17.3856 10.3857 16.7073 10.6667 16 10.6667C15.2928 10.6667 14.6145 10.3857 14.1144 9.88563C13.6143 9.38553 13.3334 8.70725 13.3334 8.00001C13.3334 7.29277 13.6143 6.61449 14.1144 6.11439C14.6145 5.61429 15.2928 5.33334 16 5.33334C16.7073 5.33334 17.3856 5.61429 17.8857 6.11439C18.3858 6.61449 18.6667 7.29277 18.6667 8.00001Z" fill="#333333"/>
<path d="M16 18.6667C16.7073 18.6667 17.3856 18.3857 17.8857 17.8856C18.3858 17.3855 18.6667 16.7073 18.6667 16C18.6667 15.2928 18.3858 14.6145 17.8857 14.1144C17.3856 13.6143 16.7073 13.3333 16 13.3333C15.2928 13.3333 14.6145 13.6143 14.1144 14.1144C13.6143 14.6145 13.3334 15.2928 13.3334 16C13.3334 16.7073 13.6143 17.3855 14.1144 17.8856C14.6145 18.3857 15.2928 18.6667 16 18.6667Z" fill="#333333"/>
<path d="M18.6667 24C18.6667 24.7073 18.3858 25.3855 17.8857 25.8856C17.3856 26.3857 16.7073 26.6667 16 26.6667C15.2928 26.6667 14.6145 26.3857 14.1144 25.8856C13.6143 25.3855 13.3334 24.7073 13.3334 24C13.3334 23.2928 13.6143 22.6145 14.1144 22.1144C14.6145 21.6143 15.2928 21.3333 16 21.3333C16.7073 21.3333 17.3856 21.6143 17.8857 22.1144C18.3858 22.6145 18.6667 23.2928 18.6667 24Z" fill="#333333"/>
<path d="M24 10.6667C24.7073 10.6667 25.3856 10.3857 25.8857 9.88563C26.3858 9.38553 26.6667 8.70725 26.6667 8.00001C26.6667 7.29277 26.3858 6.61449 25.8857 6.11439C25.3856 5.61429 24.7073 5.33334 24 5.33334C23.2928 5.33334 22.6145 5.61429 22.1144 6.11439C21.6143 6.61449 21.3334 7.29277 21.3334 8.00001C21.3334 8.70725 21.6143 9.38553 22.1144 9.88563C22.6145 10.3857 23.2928 10.6667 24 10.6667Z" fill="#333333"/>
<path d="M26.6667 16C26.6667 16.7073 26.3858 17.3855 25.8857 17.8856C25.3856 18.3857 24.7073 18.6667 24 18.6667C23.2928 18.6667 22.6145 18.3857 22.1144 17.8856C21.6143 17.3855 21.3334 16.7073 21.3334 16C21.3334 15.2928 21.6143 14.6145 22.1144 14.1144C22.6145 13.6143 23.2928 13.3333 24 13.3333C24.7073 13.3333 25.3856 13.6143 25.8857 14.1144C26.3858 14.6145 26.6667 15.2928 26.6667 16Z" fill="#333333"/>
<path d="M24 26.6667C24.7073 26.6667 25.3856 26.3857 25.8857 25.8856C26.3858 25.3855 26.6667 24.7073 26.6667 24C26.6667 23.2928 26.3858 22.6145 25.8857 22.1144C25.3856 21.6143 24.7073 21.3333 24 21.3333C23.2928 21.3333 22.6145 21.6143 22.1144 22.1144C21.6143 22.6145 21.3334 23.2928 21.3334 24C21.3334 24.7073 21.6143 25.3855 22.1144 25.8856C22.6145 26.3857 23.2928 26.6667 24 26.6667Z" fill="#333333"/>
</svg>
