<svg width="30" height="30" viewBox="0 0 30 30" fill="none" xmlns="http://www.w3.org/2000/svg">
<path d="M5 16.25C5.69036 16.25 6.25 15.6904 6.25 15C6.25 14.3096 5.69036 13.75 5 13.75C4.30964 13.75 3.75 14.3096 3.75 15C3.75 15.6904 4.30964 16.25 5 16.25Z" stroke="black" stroke-width="2"/>
<path d="M15 16.25C15.6904 16.25 16.25 15.6904 16.25 15C16.25 14.3096 15.6904 13.75 15 13.75C14.3096 13.75 13.75 14.3096 13.75 15C13.75 15.6904 14.3096 16.25 15 16.25Z" stroke="black" stroke-width="2"/>
<path d="M25 16.25C25.6904 16.25 26.25 15.6904 26.25 15C26.25 14.3096 25.6904 13.75 25 13.75C24.3096 13.75 23.75 14.3096 23.75 15C23.75 15.6904 24.3096 16.25 25 16.25Z" stroke="black" stroke-width="2"/>
</svg>
